<svg xmlns="http://www.w3.org/2000/svg" viewBox="0 0 583.54 313.56"><defs><style>.cls-1{fill:#f15d3b;}.cls-2{fill:#fff;}.cls-3{fill:#434444;}</style></defs><title>Asset 1</title><g id="Layer_2" data-name="Layer 2"><g id="Layer_1-2" data-name="Layer 1"><ellipse class="cls-1" cx="310.3" cy="156.78" rx="156.09" ry="156.78"/><path class="cls-2" d="M242,240.67c3.87,5.64,12,9.86,22.37,9.86,19.2,0,39.1-14.79,39.1-46.14,0-27.47-16.91-43.85-35.75-43.85-12.5,0-22.37,4.93-28.71,13.91h-.19L223,219.18c-2.9,8.08-5.58,15-8.1,21v40.66a156.33,156.33,0,0,0,26.77,16.78V240.67Zm-.35-40.86a20.22,20.22,0,0,1,.53-4.75c1.76-7.93,8.45-13.56,16-13.56,12,0,18.14,10.39,18.14,24.13,0,14.62-6.87,24.3-18.49,24.3a16.2,16.2,0,0,1-15.67-12.68,28,28,0,0,1-.53-5.64v-11.8Z"/><path class="cls-2" d="M381.44,227.81c0,8.1.35,16,1.41,20.78H358.72L357.13,240h-.53c-5.64,6.87-14.44,10.57-24.66,10.57-17.44,0-27.83-12.68-27.83-26.42,0-22.37,20.08-32.94,50.55-32.94v-1.06c0-4.75-2.47-11.27-15.68-11.27a48.4,48.4,0,0,0-23.78,6.52l-4.91-17.25c6-3.35,17.79-7.75,33.46-7.75,28.71,0,37.69,16.91,37.69,37.34v30.11Zm-25.89-19.9c-14.09,0-25,3.35-25,13.56,0,6.87,4.58,10.21,10.57,10.21A14.79,14.79,0,0,0,355,221.82a19.29,19.29,0,0,0,.53-4.58Z"/><path class="cls-2" d="M466.34,162.47H438.76L428,204.74c-1.23,5.11-2.64,11.45-3.7,16.2h-.7c-1.06-4.58-2.82-11.09-4.23-16l-12.86-42.45H376.77l31.7,78.9a10.9,10.9,0,0,1,1.06,4.4,8.06,8.06,0,0,1-1.41,3.88A30.65,30.65,0,0,1,397,260.38,42.66,42.66,0,0,1,385.4,265l5.81,22.54a42.36,42.36,0,0,0,7.72-1.63A156.69,156.69,0,0,0,466.34,162.47Z"/><path class="cls-3" d="M560.52,137.79H556v-1.64h11v1.64h-4.56v13.29h-2Z"/><path class="cls-3" d="M581.27,144.52c-.11-2.08-.24-4.61-.24-6.44h0c-.53,1.73-1.13,3.61-1.88,5.67L576.47,151H575l-2.44-7.11c-.71-2.13-1.28-4-1.7-5.8h0c0,1.86-.15,4.34-.29,6.6l-.4,6.4h-1.84l1-14.93h2.46l2.55,7.22c.62,1.84,1.11,3.48,1.51,5h0c.4-1.51.93-3.15,1.6-5l2.66-7.22h2.46l.93,14.93h-1.9Z"/><path class="cls-3" d="M0,108.15c8.28-1.41,19.9-2.47,36.28-2.47,16.56,0,28.36,3.17,36.28,9.51,7.75,6,12.68,15.85,12.68,27.47s-3.7,21.66-10.92,28.18c-9.16,8.45-22.72,12.5-38.57,12.5a46.8,46.8,0,0,1-9.16-.7v42.62H0Zm26.59,53.9a40,40,0,0,0,9,.7c14.27,0,23.07-7.22,23.07-19.2,0-10.92-7.57-17.44-21.13-17.44-5.28,0-9,.35-10.92.88Z"/><path class="cls-3" d="M158.4,204.49c0,8.1.35,16,1.41,20.78H135.68l-1.58-8.63h-.53c-5.64,6.87-14.44,10.57-24.66,10.57-17.44,0-27.83-12.68-27.83-26.42,0-22.37,20.08-32.94,50.55-32.94v-1.06c0-4.75-2.47-11.27-15.68-11.27A48.37,48.37,0,0,0,92.17,162l-4.93-17.26c6-3.35,17.79-7.75,33.46-7.75,28.71,0,37.69,16.91,37.69,37.34v30.12Zm-25.89-19.9c-14.09,0-25,3.35-25,13.56,0,6.87,4.58,10.21,10.57,10.21A14.79,14.79,0,0,0,132,198.5a19.29,19.29,0,0,0,.53-4.58v-9.33Z"/><path class="cls-3" d="M183.39,139.15l12.86,42.45c1.41,4.93,3.17,11.45,4.23,16h.7c1.06-4.75,2.47-11.1,3.7-16.2l10.74-42.27h28.53l-20.08,56.71c-12.33,34.34-20.61,47.9-30.29,56.53a47,47,0,0,1-25.71,11.8l-5.81-22.54a42.53,42.53,0,0,0,11.62-4.58A30.89,30.89,0,0,0,185,226.34a8.06,8.06,0,0,0,1.41-3.88,10.86,10.86,0,0,0-1.06-4.4l-31.7-78.9h29.76Z"/><path class="cls-3" d="M541.18,204.49c0,8.1.35,16,1.41,20.78H518.46l-1.58-8.63h-.53c-5.64,6.87-14.44,10.57-24.66,10.57-17.44,0-27.83-12.68-27.83-26.42,0-22.37,20.08-32.94,50.55-32.94v-1.06c0-4.75-2.47-11.27-15.68-11.27A48.37,48.37,0,0,0,475,162L470,144.78c6-3.35,17.79-7.75,33.46-7.75,28.71,0,37.69,16.91,37.69,37.34v30.12Zm-25.89-19.9c-14.09,0-25,3.35-25,13.56,0,6.87,4.58,10.21,10.57,10.21a14.79,14.79,0,0,0,13.91-9.86,19.29,19.29,0,0,0,.53-4.58Z"/></g></g></svg>