<?xml version="1.0" standalone="no"?>
<!DOCTYPE svg PUBLIC "-//W3C//DTD SVG 20010904//EN"
 "http://www.w3.org/TR/2001/REC-SVG-20010904/DTD/svg10.dtd">
<svg version="1.0" xmlns="http://www.w3.org/2000/svg"
 width="260.000000pt" height="260.000000pt" viewBox="0 0 260.000000 260.000000"
 preserveAspectRatio="xMidYMid meet">
<metadata>
Created by potrace 1.11, written by Peter Selinger 2001-2013
</metadata>
<g transform="translate(0.000000,260.000000) scale(0.100000,-0.100000)"
fill="#000000" stroke="none">
<path d="M1100 2585 c-695 -110 -1175 -747 -1090 -1445 38 -310 197 -612 430
-816 l55 -48 5 175 c3 103 10 182 16 194 7 11 51 130 99 265 95 267 108 290
194 332 35 17 65 22 126 22 71 1 86 -2 133 -29 30 -16 65 -42 78 -58 127 -151
121 -428 -12 -561 -104 -103 -289 -124 -377 -42 l-27 25 0 -235 0 -235 56 -25
c138 -61 348 -104 509 -104 228 0 487 73 670 188 43 27 47 32 25 32 -23 0 -27
7 -48 88 -26 103 -26 102 -7 102 50 0 163 88 179 138 5 13 -39 134 -125 349
-72 180 -133 334 -136 340 -4 10 24 13 119 13 l124 0 29 -97 c16 -54 48 -163
71 -243 36 -124 43 -141 49 -115 12 50 105 419 111 438 5 15 19 17 120 17
l114 0 0 63 c0 225 -76 483 -200 680 -274 434 -789 671 -1290 592z m580 -1326
c85 -18 164 -92 191 -178 6 -20 14 -148 18 -289 l6 -253 -100 3 -100 3 -3 27
c-2 16 -5 28 -7 28 -3 0 -25 -13 -50 -29 -199 -126 -431 11 -385 226 27 124
140 196 330 212 68 5 75 8 78 28 5 33 -36 69 -89 77 -49 7 -128 -5 -185 -29
-20 -8 -40 -15 -44 -15 -7 0 -40 105 -40 128 0 47 254 88 380 61z"/>
<path d="M1597 870 c-96 -12 -149 -68 -127 -134 25 -76 143 -72 186 6 14 24
19 139 7 137 -5 -1 -34 -5 -66 -9z"/>
<path d="M787 1069 c-47 -36 -57 -68 -57 -183 0 -103 1 -106 30 -140 40 -45
86 -61 138 -47 73 20 112 89 112 198 0 79 -23 138 -65 171 -38 30 -119 30
-158 1z"/>
</g>
</svg>
